  0
SECTION
  2
HEADER
  9
$ACADVER
  1
AC1015
  9
$INSUNITS
 70
6
  0
ENDSEC
  0
SECTION
  2
ENTITIES
  0
POLYLINE
100
AcDbEntity
  8
LOTES
100
AcDb2dPolyline
 66
1
 10
0.0
 20
0.0
 30
0.0
 70
1
  0
VERTEX
  8
LOTES
100
AcDbVertex
100
AcDb2dVertex
 10
10.000000
 20
10.000000
 30
0.0
 70
0
  0
VERTEX
  8
LOTES
100
AcDbVertex
100
AcDb2dVertex
 10
20.000000
 20
10.000000
 30
0.0
 70
0
  0
VERTEX
  8
LOTES
100
AcDbVertex
100
AcDb2dVertex
 10
20.000000
 20
30.000000
 30
0.0
 70
0
  0
VERTEX
  8
LOTES
100
AcDbVertex
100
AcDb2dVertex
 10
10.000000
 20
30.000000
 30
0.0
 70
0
  0
SEQEND
  8
LOTES
  0
MTEXT
100
AcDbEntity
  8
TEXTOS
100
AcDbMText
 10
15.000000
 20
20.000000
 40
2.0000
 71
5
  1
\H1.2x;\C1;LOTE 1
  0
LWPOLYLINE
100
AcDbEntity
  8
LOTES
100
AcDbPolyline
 90
4
 70
1
 10
20.000000
 20
10.000000
 10
30.000000
 20
10.000000
 10
30.000000
 20
30.000000
 10
20.000000
 20
30.000000
  0
TEXT
100
AcDbEntity
  8
TEXTOS
100
AcDbText
 10
22.000000
 20
19.000000
 40
2.0000
  1
2
 72
1
 73
2
 11
25.000000
 21
20.000000
100
AcDbText
  0
LWPOLYLINE
100
AcDbEntity
  8
LOTES
100
AcDbPolyline
 90
4
 70
1
 10
30.000000
 20
10.000000
 10
40.000000
 20
10.000000
 10
40.000000
 20
30.000000
 10
30.000000
 20
30.000000
  0
TEXT
100
AcDbEntity
  8
TEXTOS
100
AcDbText
 10
32.000000
 20
19.000000
 40
2.0000
  1
3
 72
1
 73
2
 11
35.000000
 21
20.000000
100
AcDbText
  0
LWPOLYLINE
100
AcDbEntity
  8
LOTES
100
AcDbPolyline
 90
4
 70
1
 10
40.000000
 20
10.000000
 10
50.000000
 20
10.000000
 10
50.000000
 20
30.000000
 10
40.000000
 20
30.000000
  0
TEXT
100
AcDbEntity
  8
TEXTOS
100
AcDbText
 10
42.000000
 20
19.000000
 40
2.0000
  1
4
 72
1
 73
2
 11
45.000000
 21
20.000000
100
AcDbText
  0
LWPOLYLINE
100
AcDbEntity
  8
LOTES
100
AcDbPolyline
 90
4
 70
1
 10
50.000000
 20
10.000000
 10
60.000000
 20
10.000000
 10
60.000000
 20
30.000000
 10
50.000000
 20
30.000000
  0
TEXT
100
AcDbEntity
  8
TEXTOS
100
AcDbText
 10
52.000000
 20
19.000000
 40
2.0000
  1
5
 72
1
 73
2
 11
55.000000
 21
20.000000
100
AcDbText
  0
LWPOLYLINE
100
AcDbEntity
  8
LOTES
100
AcDbPolyline
 90
4
 70
1
 10
60.000000
 20
10.000000
 10
70.000000
 20
10.000000
 10
70.000000
 20
30.000000
 10
60.000000
 20
30.000000
  0
TEXT
100
AcDbEntity
  8
TEXTOS
100
AcDbText
 10
62.000000
 20
19.000000
 40
2.0000
  1
6
 72
1
 73
2
 11
65.000000
 21
20.000000
100
AcDbText
  0
LWPOLYLINE
100
AcDbEntity
  8
LOTES
100
AcDbPolyline
 90
4
 70
1
 10
70.000000
 20
10.000000
 10
80.000000
 20
10.000000
 10
80.000000
 20
30.000000
 10
70.000000
 20
30.000000
  0
TEXT
100
AcDbEntity
  8
TEXTOS
100
AcDbText
 10
72.000000
 20
19.000000
 40
2.0000
  1
7
 72
1
 73
2
 11
75.000000
 21
20.000000
100
AcDbText
  0
LWPOLYLINE
100
AcDbEntity
  8
LOTES
100
AcDbPolyline
 90
4
 70
1
 10
80.000000
 20
10.000000
 10
90.000000
 20
10.000000
 10
90.000000
 20
30.000000
 10
80.000000
 20
30.000000
  0
TEXT
100
AcDbEntity
  8
TEXTOS
100
AcDbText
 10
82.000000
 20
19.000000
 40
2.0000
  1
8
 72
1
 73
2
 11
85.000000
 21
20.000000
100
AcDbText
  0
LWPOLYLINE
100
AcDbEntity
  8
LOTES
100
AcDbPolyline
 90
4
 70
1
 10
90.000000
 20
10.000000
 10
100.000000
 20
10.000000
 10
100.000000
 20
30.000000
 10
90.000000
 20
30.000000
  0
TEXT
100
AcDbEntity
  8
TEXTOS
100
AcDbText
 10
92.000000
 20
19.000000
 40
2.0000
  1
9
 72
1
 73
2
 11
95.000000
 21
20.000000
100
AcDbText
  0
LWPOLYLINE
100
AcDbEntity
  8
LOTES
100
AcDbPolyline
 90
4
 70
1
 10
100.000000
 20
10.000000
 10
110.000000
 20
10.000000
 10
110.000000
 20
30.000000
 10
100.000000
 20
30.000000
  0
TEXT
100
AcDbEntity
  8
TEXTOS
100
AcDbText
 10
102.000000
 20
19.000000
 40
2.0000
  1
10
 72
1
 73
2
 11
105.000000
 21
20.000000
100
AcDbText
  0
LWPOLYLINE
100
AcDbEntity
  8
LOTES
100
AcDbPolyline
 90
4
 70
1
 10
110.000000
 20
10.000000
 10
120.000000
 20
10.000000
 10
120.000000
 20
30.000000
 10
110.000000
 20
30.000000
  0
TEXT
100
AcDbEntity
  8
TEXTOS
100
AcDbText
 10
112.000000
 20
19.000000
 40
2.0000
  1
11
 72
1
 73
2
 11
115.000000
 21
20.000000
100
AcDbText
  0
LWPOLYLINE
100
AcDbEntity
  8
LOTES
100
AcDbPolyline
 90
4
 70
1
 10
120.000000
 20
10.000000
 10
130.000000
 20
10.000000
 10
130.000000
 20
30.000000
 10
120.000000
 20
30.000000
  0
TEXT
100
AcDbEntity
  8
TEXTOS
100
AcDbText
 10
122.000000
 20
19.000000
 40
2.0000
  1
12
 72
1
 73
2
 11
125.000000
 21
20.000000
100
AcDbText
  0
LWPOLYLINE
100
AcDbEntity
  8
LOTES
100
AcDbPolyline
 90
4
 70
1
 10
10.000000
 20
30.000000
 10
20.000000
 20
30.000000
 10
20.000000
 20
50.000000
 10
10.000000
 20
50.000000
  0
TEXT
100
AcDbEntity
  8
TEXTOS
100
AcDbText
 10
12.000000
 20
39.000000
 40
2.0000
  1
13
 72
1
 73
2
 11
15.000000
 21
40.000000
100
AcDbText
  0
LWPOLYLINE
100
AcDbEntity
  8
LOTES
100
AcDbPolyline
 90
4
 70
1
 10
20.000000
 20
30.000000
 10
30.000000
 20
30.000000
 10
30.000000
 20
50.000000
 10
20.000000
 20
50.000000
  0
TEXT
100
AcDbEntity
  8
TEXTOS
100
AcDbText
 10
22.000000
 20
39.000000
 40
2.0000
  1
14
 72
1
 73
2
 11
25.000000
 21
40.000000
100
AcDbText
  0
LWPOLYLINE
100
AcDbEntity
  8
LOTES
100
AcDbPolyline
 90
4
 70
1
 10
30.000000
 20
30.000000
 10
40.000000
 20
30.000000
 10
40.000000
 20
50.000000
 10
30.000000
 20
50.000000
  0
TEXT
100
AcDbEntity
  8
TEXTOS
100
AcDbText
 10
32.000000
 20
39.000000
 40
2.0000
  1
15
 72
1
 73
2
 11
35.000000
 21
40.000000
100
AcDbText
  0
LWPOLYLINE
100
AcDbEntity
  8
LOTES
100
AcDbPolyline
 90
4
 70
1
 10
40.000000
 20
30.000000
 10
50.000000
 20
30.000000
 10
50.000000
 20
50.000000
 10
40.000000
 20
50.000000
  0
TEXT
100
AcDbEntity
  8
TEXTOS
100
AcDbText
 10
42.000000
 20
39.000000
 40
2.0000
  1
16
 72
1
 73
2
 11
45.000000
 21
40.000000
100
AcDbText
  0
LWPOLYLINE
100
AcDbEntity
  8
LOTES
100
AcDbPolyline
 90
4
 70
1
 10
50.000000
 20
30.000000
 10
60.000000
 20
30.000000
 10
60.000000
 20
50.000000
 10
50.000000
 20
50.000000
  0
TEXT
100
AcDbEntity
  8
TEXTOS
100
AcDbText
 10
52.000000
 20
39.000000
 40
2.0000
  1
17
 72
1
 73
2
 11
55.000000
 21
40.000000
100
AcDbText
  0
LWPOLYLINE
100
AcDbEntity
  8
LOTES
100
AcDbPolyline
 90
4
 70
1
 10
60.000000
 20
30.000000
 10
70.000000
 20
30.000000
 10
70.000000
 20
50.000000
 10
60.000000
 20
50.000000
  0
TEXT
100
AcDbEntity
  8
TEXTOS
100
AcDbText
 10
62.000000
 20
39.000000
 40
2.0000
  1
18
 72
1
 73
2
 11
65.000000
 21
40.000000
100
AcDbText
  0
LWPOLYLINE
100
AcDbEntity
  8
LOTES
100
AcDbPolyline
 90
4
 70
1
 10
70.000000
 20
30.000000
 10
80.000000
 20
30.000000
 10
80.000000
 20
50.000000
 10
70.000000
 20
50.000000
  0
TEXT
100
AcDbEntity
  8
TEXTOS
100
AcDbText
 10
72.000000
 20
39.000000
 40
2.0000
  1
19
 72
1
 73
2
 11
75.000000
 21
40.000000
100
AcDbText
  0
LWPOLYLINE
100
AcDbEntity
  8
LOTES
100
AcDbPolyline
 90
4
 70
1
 10
80.000000
 20
30.000000
 10
90.000000
 20
30.000000
 10
90.000000
 20
50.000000
 10
80.000000
 20
50.000000
  0
TEXT
100
AcDbEntity
  8
TEXTOS
100
AcDbText
 10
82.000000
 20
39.000000
 40
2.0000
  1
20
 72
1
 73
2
 11
85.000000
 21
40.000000
100
AcDbText
  0
LWPOLYLINE
100
AcDbEntity
  8
LOTES
100
AcDbPolyline
 90
4
 70
1
 10
90.000000
 20
30.000000
 10
100.000000
 20
30.000000
 10
100.000000
 20
50.000000
 10
90.000000
 20
50.000000
  0
TEXT
100
AcDbEntity
  8
TEXTOS
100
AcDbText
 10
92.000000
 20
39.000000
 40
2.0000
  1
21
 72
1
 73
2
 11
95.000000
 21
40.000000
100
AcDbText
  0
LWPOLYLINE
100
AcDbEntity
  8
LOTES
100
AcDbPolyline
 90
4
 70
1
 10
100.000000
 20
30.000000
 10
110.000000
 20
30.000000
 10
110.000000
 20
50.000000
 10
100.000000
 20
50.000000
  0
TEXT
100
AcDbEntity
  8
TEXTOS
100
AcDbText
 10
102.000000
 20
39.000000
 40
2.0000
  1
22
 72
1
 73
2
 11
105.000000
 21
40.000000
100
AcDbText
  0
LWPOLYLINE
100
AcDbEntity
  8
LOTES
100
AcDbPolyline
 90
4
 70
1
 10
110.000000
 20
30.000000
 10
120.000000
 20
30.000000
 10
120.000000
 20
50.000000
 10
110.000000
 20
50.000000
  0
TEXT
100
AcDbEntity
  8
TEXTOS
100
AcDbText
 10
112.000000
 20
39.000000
 40
2.0000
  1
23
 72
1
 73
2
 11
115.000000
 21
40.000000
100
AcDbText
  0
LWPOLYLINE
100
AcDbEntity
  8
LOTES
100
AcDbPolyline
 90
4
 70
1
 10
120.000000
 20
30.000000
 10
130.000000
 20
30.000000
 10
130.000000
 20
50.000000
 10
120.000000
 20
50.000000
  0
TEXT
100
AcDbEntity
  8
TEXTOS
100
AcDbText
 10
122.000000
 20
39.000000
 40
2.0000
  1
24
 72
1
 73
2
 11
125.000000
 21
40.000000
100
AcDbText
  0
LWPOLYLINE
100
AcDbEntity
  8
CALLES
100
AcDbPolyline
 90
4
 70
1
 10
10.000000
 20
50.000000
 10
190.000000
 20
50.000000
 10
190.000000
 20
58.000000
 10
10.000000
 20
58.000000
  0
LWPOLYLINE
100
AcDbEntity
  8
LOTES
100
AcDbPolyline
 90
4
 70
1
 10
10.000000
 20
58.000000
 10
20.000000
 20
58.000000
 10
20.000000
 20
78.000000
 10
10.000000
 20
78.000000
  0
TEXT
100
AcDbEntity
  8
TEXTOS
100
AcDbText
 10
12.000000
 20
67.000000
 40
2.0000
  1
25
 72
1
 73
2
 11
15.000000
 21
68.000000
100
AcDbText
  0
LWPOLYLINE
100
AcDbEntity
  8
LOTES
100
AcDbPolyline
 90
4
 70
1
 10
20.000000
 20
58.000000
 10
30.000000
 20
58.000000
 10
30.000000
 20
78.000000
 10
20.000000
 20
78.000000
  0
TEXT
100
AcDbEntity
  8
TEXTOS
100
AcDbText
 10
22.000000
 20
67.000000
 40
2.0000
  1
26
 72
1
 73
2
 11
25.000000
 21
68.000000
100
AcDbText
  0
LWPOLYLINE
100
AcDbEntity
  8
LOTES
100
AcDbPolyline
 90
4
 70
1
 10
30.000000
 20
58.000000
 10
40.000000
 20
58.000000
 10
40.000000
 20
78.000000
 10
30.000000
 20
78.000000
  0
TEXT
100
AcDbEntity
  8
TEXTOS
100
AcDbText
 10
32.000000
 20
67.000000
 40
2.0000
  1
27
 72
1
 73
2
 11
35.000000
 21
68.000000
100
AcDbText
  0
LWPOLYLINE
100
AcDbEntity
  8
LOTES
100
AcDbPolyline
 90
4
 70
1
 10
40.000000
 20
58.000000
 10
50.000000
 20
58.000000
 10
50.000000
 20
78.000000
 10
40.000000
 20
78.000000
  0
TEXT
100
AcDbEntity
  8
TEXTOS
100
AcDbText
 10
42.000000
 20
67.000000
 40
2.0000
  1
28
 72
1
 73
2
 11
45.000000
 21
68.000000
100
AcDbText
  0
LWPOLYLINE
100
AcDbEntity
  8
LOTES
100
AcDbPolyline
 90
4
 70
1
 10
50.000000
 20
58.000000
 10
60.000000
 20
58.000000
 10
60.000000
 20
78.000000
 10
50.000000
 20
78.000000
  0
TEXT
100
AcDbEntity
  8
TEXTOS
100
AcDbText
 10
52.000000
 20
67.000000
 40
2.0000
  1
29
 72
1
 73
2
 11
55.000000
 21
68.000000
100
AcDbText
  0
LWPOLYLINE
100
AcDbEntity
  8
LOTES
100
AcDbPolyline
 90
4
 70
1
 10
60.000000
 20
58.000000
 10
70.000000
 20
58.000000
 10
70.000000
 20
78.000000
 10
60.000000
 20
78.000000
  0
TEXT
100
AcDbEntity
  8
TEXTOS
100
AcDbText
 10
62.000000
 20
67.000000
 40
2.0000
  1
30
 72
1
 73
2
 11
65.000000
 21
68.000000
100
AcDbText
  0
LWPOLYLINE
100
AcDbEntity
  8
LOTES
100
AcDbPolyline
 90
4
 70
1
 10
70.000000
 20
58.000000
 10
80.000000
 20
58.000000
 10
80.000000
 20
78.000000
 10
70.000000
 20
78.000000
  0
TEXT
100
AcDbEntity
  8
TEXTOS
100
AcDbText
 10
72.000000
 20
67.000000
 40
2.0000
  1
31
 72
1
 73
2
 11
75.000000
 21
68.000000
100
AcDbText
  0
LWPOLYLINE
100
AcDbEntity
  8
LOTES
100
AcDbPolyline
 90
4
 70
1
 10
80.000000
 20
58.000000
 10
90.000000
 20
58.000000
 10
90.000000
 20
78.000000
 10
80.000000
 20
78.000000
  0
TEXT
100
AcDbEntity
  8
TEXTOS
100
AcDbText
 10
82.000000
 20
67.000000
 40
2.0000
  1
32
 72
1
 73
2
 11
85.000000
 21
68.000000
100
AcDbText
  0
LWPOLYLINE
100
AcDbEntity
  8
LOTES
100
AcDbPolyline
 90
4
 70
1
 10
90.000000
 20
58.000000
 10
100.000000
 20
58.000000
 10
100.000000
 20
78.000000
 10
90.000000
 20
78.000000
  0
TEXT
100
AcDbEntity
  8
TEXTOS
100
AcDbText
 10
92.000000
 20
67.000000
 40
2.0000
  1
33
 72
1
 73
2
 11
95.000000
 21
68.000000
100
AcDbText
  0
LWPOLYLINE
100
AcDbEntity
  8
LOTES
100
AcDbPolyline
 90
4
 70
1
 10
100.000000
 20
58.000000
 10
110.000000
 20
58.000000
 10
110.000000
 20
78.000000
 10
100.000000
 20
78.000000
  0
TEXT
100
AcDbEntity
  8
TEXTOS
100
AcDbText
 10
102.000000
 20
67.000000
 40
2.0000
  1
34
 72
1
 73
2
 11
105.000000
 21
68.000000
100
AcDbText
  0
LWPOLYLINE
100
AcDbEntity
  8
LOTES
100
AcDbPolyline
 90
4
 70
1
 10
110.000000
 20
58.000000
 10
120.000000
 20
58.000000
 10
120.000000
 20
78.000000
 10
110.000000
 20
78.000000
  0
TEXT
100
AcDbEntity
  8
TEXTOS
100
AcDbText
 10
112.000000
 20
67.000000
 40
2.0000
  1
35
 72
1
 73
2
 11
115.000000
 21
68.000000
100
AcDbText
  0
LWPOLYLINE
100
AcDbEntity
  8
LOTES
100
AcDbPolyline
 90
4
 70
1
 10
120.000000
 20
58.000000
 10
130.000000
 20
58.000000
 10
130.000000
 20
78.000000
 10
120.000000
 20
78.000000
  0
TEXT
100
AcDbEntity
  8
TEXTOS
100
AcDbText
 10
122.000000
 20
67.000000
 40
2.0000
  1
36
 72
1
 73
2
 11
125.000000
 21
68.000000
100
AcDbText
  0
LWPOLYLINE
100
AcDbEntity
  8
LOTES
100
AcDbPolyline
 90
4
 70
1
 10
10.000000
 20
78.000000
 10
20.000000
 20
78.000000
 10
20.000000
 20
98.000000
 10
10.000000
 20
98.000000
  0
TEXT
100
AcDbEntity
  8
TEXTOS
100
AcDbText
 10
12.000000
 20
87.000000
 40
2.0000
  1
37
 72
1
 73
2
 11
15.000000
 21
88.000000
100
AcDbText
  0
LWPOLYLINE
100
AcDbEntity
  8
LOTES
100
AcDbPolyline
 90
4
 70
1
 10
20.000000
 20
78.000000
 10
30.000000
 20
78.000000
 10
30.000000
 20
98.000000
 10
20.000000
 20
98.000000
  0
TEXT
100
AcDbEntity
  8
TEXTOS
100
AcDbText
 10
22.000000
 20
87.000000
 40
2.0000
  1
38
 72
1
 73
2
 11
25.000000
 21
88.000000
100
AcDbText
  0
LWPOLYLINE
100
AcDbEntity
  8
LOTES
100
AcDbPolyline
 90
4
 70
1
 10
30.000000
 20
78.000000
 10
40.000000
 20
78.000000
 10
40.000000
 20
98.000000
 10
30.000000
 20
98.000000
  0
TEXT
100
AcDbEntity
  8
TEXTOS
100
AcDbText
 10
32.000000
 20
87.000000
 40
2.0000
  1
39
 72
1
 73
2
 11
35.000000
 21
88.000000
100
AcDbText
  0
LWPOLYLINE
100
AcDbEntity
  8
LOTES
100
AcDbPolyline
 90
4
 70
1
 10
40.000000
 20
78.000000
 10
50.000000
 20
78.000000
 10
50.000000
 20
98.000000
 10
40.000000
 20
98.000000
  0
TEXT
100
AcDbEntity
  8
TEXTOS
100
AcDbText
 10
42.000000
 20
87.000000
 40
2.0000
  1
40
 72
1
 73
2
 11
45.000000
 21
88.000000
100
AcDbText
  0
LWPOLYLINE
100
AcDbEntity
  8
LOTES
100
AcDbPolyline
 90
4
 70
1
 10
50.000000
 20
78.000000
 10
60.000000
 20
78.000000
 10
60.000000
 20
98.000000
 10
50.000000
 20
98.000000
  0
TEXT
100
AcDbEntity
  8
TEXTOS
100
AcDbText
 10
52.000000
 20
87.000000
 40
2.0000
  1
41
 72
1
 73
2
 11
55.000000
 21
88.000000
100
AcDbText
  0
LWPOLYLINE
100
AcDbEntity
  8
LOTES
100
AcDbPolyline
 90
4
 70
1
 10
60.000000
 20
78.000000
 10
70.000000
 20
78.000000
 10
70.000000
 20
98.000000
 10
60.000000
 20
98.000000
  0
TEXT
100
AcDbEntity
  8
TEXTOS
100
AcDbText
 10
62.000000
 20
87.000000
 40
2.0000
  1
42
 72
1
 73
2
 11
65.000000
 21
88.000000
100
AcDbText
  0
LWPOLYLINE
100
AcDbEntity
  8
LOTES
100
AcDbPolyline
 90
4
 70
1
 10
70.000000
 20
78.000000
 10
80.000000
 20
78.000000
 10
80.000000
 20
98.000000
 10
70.000000
 20
98.000000
  0
TEXT
100
AcDbEntity
  8
TEXTOS
100
AcDbText
 10
72.000000
 20
87.000000
 40
2.0000
  1
43
 72
1
 73
2
 11
75.000000
 21
88.000000
100
AcDbText
  0
LWPOLYLINE
100
AcDbEntity
  8
LOTES
100
AcDbPolyline
 90
4
 70
1
 10
80.000000
 20
78.000000
 10
90.000000
 20
78.000000
 10
90.000000
 20
98.000000
 10
80.000000
 20
98.000000
  0
TEXT
100
AcDbEntity
  8
TEXTOS
100
AcDbText
 10
82.000000
 20
87.000000
 40
2.0000
  1
44
 72
1
 73
2
 11
85.000000
 21
88.000000
100
AcDbText
  0
LWPOLYLINE
100
AcDbEntity
  8
LOTES
100
AcDbPolyline
 90
4
 70
1
 10
90.000000
 20
78.000000
 10
100.000000
 20
78.000000
 10
100.000000
 20
98.000000
 10
90.000000
 20
98.000000
  0
TEXT
100
AcDbEntity
  8
TEXTOS
100
AcDbText
 10
92.000000
 20
87.000000
 40
2.0000
  1
45
 72
1
 73
2
 11
95.000000
 21
88.000000
100
AcDbText
  0
LWPOLYLINE
100
AcDbEntity
  8
LOTES
100
AcDbPolyline
 90
4
 70
1
 10
100.000000
 20
78.000000
 10
110.000000
 20
78.000000
 10
110.000000
 20
98.000000
 10
100.000000
 20
98.000000
  0
TEXT
100
AcDbEntity
  8
TEXTOS
100
AcDbText
 10
102.000000
 20
87.000000
 40
2.0000
  1
46
 72
1
 73
2
 11
105.000000
 21
88.000000
100
AcDbText
  0
LWPOLYLINE
100
AcDbEntity
  8
LOTES
100
AcDbPolyline
 90
4
 70
1
 10
110.000000
 20
78.000000
 10
120.000000
 20
78.000000
 10
120.000000
 20
98.000000
 10
110.000000
 20
98.000000
  0
TEXT
100
AcDbEntity
  8
TEXTOS
100
AcDbText
 10
112.000000
 20
87.000000
 40
2.0000
  1
47
 72
1
 73
2
 11
115.000000
 21
88.000000
100
AcDbText
  0
LWPOLYLINE
100
AcDbEntity
  8
LOTES
100
AcDbPolyline
 90
4
 70
1
 10
120.000000
 20
78.000000
 10
130.000000
 20
78.000000
 10
130.000000
 20
98.000000
 10
120.000000
 20
98.000000
  0
TEXT
100
AcDbEntity
  8
TEXTOS
100
AcDbText
 10
122.000000
 20
87.000000
 40
2.0000
  1
48
 72
1
 73
2
 11
125.000000
 21
88.000000
100
AcDbText
  0
LWPOLYLINE
100
AcDbEntity
  8
CALLES
100
AcDbPolyline
 90
4
 70
1
 10
10.000000
 20
98.000000
 10
190.000000
 20
98.000000
 10
190.000000
 20
106.000000
 10
10.000000
 20
106.000000
  0
LWPOLYLINE
100
AcDbEntity
  8
LOTES
100
AcDbPolyline
 90
4
 70
1
 10
10.000000
 20
106.000000
 10
20.000000
 20
106.000000
 10
20.000000
 20
126.000000
 10
10.000000
 20
126.000000
  0
TEXT
100
AcDbEntity
  8
TEXTOS
100
AcDbText
 10
12.000000
 20
115.000000
 40
2.0000
  1
49
 72
1
 73
2
 11
15.000000
 21
116.000000
100
AcDbText
  0
LWPOLYLINE
100
AcDbEntity
  8
LOTES
100
AcDbPolyline
 90
4
 70
1
 10
20.000000
 20
106.000000
 10
30.000000
 20
106.000000
 10
30.000000
 20
126.000000
 10
20.000000
 20
126.000000
  0
TEXT
100
AcDbEntity
  8
TEXTOS
100
AcDbText
 10
22.000000
 20
115.000000
 40
2.0000
  1
50
 72
1
 73
2
 11
25.000000
 21
116.000000
100
AcDbText
  0
LWPOLYLINE
100
AcDbEntity
  8
LOTES
100
AcDbPolyline
 90
4
 70
1
 10
30.000000
 20
106.000000
 10
40.000000
 20
106.000000
 10
40.000000
 20
126.000000
 10
30.000000
 20
126.000000
  0
TEXT
100
AcDbEntity
  8
TEXTOS
100
AcDbText
 10
32.000000
 20
115.000000
 40
2.0000
  1
51
 72
1
 73
2
 11
35.000000
 21
116.000000
100
AcDbText
  0
LWPOLYLINE
100
AcDbEntity
  8
LOTES
100
AcDbPolyline
 90
4
 70
1
 10
40.000000
 20
106.000000
 10
50.000000
 20
106.000000
 10
50.000000
 20
126.000000
 10
40.000000
 20
126.000000
  0
TEXT
100
AcDbEntity
  8
TEXTOS
100
AcDbText
 10
42.000000
 20
115.000000
 40
2.0000
  1
52
 72
1
 73
2
 11
45.000000
 21
116.000000
100
AcDbText
  0
LWPOLYLINE
100
AcDbEntity
  8
LOTES
100
AcDbPolyline
 90
4
 70
1
 10
50.000000
 20
106.000000
 10
60.000000
 20
106.000000
 10
60.000000
 20
126.000000
 10
50.000000
 20
126.000000
  0
TEXT
100
AcDbEntity
  8
TEXTOS
100
AcDbText
 10
52.000000
 20
115.000000
 40
2.0000
  1
53
 72
1
 73
2
 11
55.000000
 21
116.000000
100
AcDbText
  0
LWPOLYLINE
100
AcDbEntity
  8
LOTES
100
AcDbPolyline
 90
4
 70
1
 10
60.000000
 20
106.000000
 10
70.000000
 20
106.000000
 10
70.000000
 20
126.000000
 10
60.000000
 20
126.000000
  0
TEXT
100
AcDbEntity
  8
TEXTOS
100
AcDbText
 10
62.000000
 20
115.000000
 40
2.0000
  1
54
 72
1
 73
2
 11
65.000000
 21
116.000000
100
AcDbText
  0
LWPOLYLINE
100
AcDbEntity
  8
LOTES
100
AcDbPolyline
 90
4
 70
1
 10
70.000000
 20
106.000000
 10
80.000000
 20
106.000000
 10
80.000000
 20
126.000000
 10
70.000000
 20
126.000000
  0
TEXT
100
AcDbEntity
  8
TEXTOS
100
AcDbText
 10
72.000000
 20
115.000000
 40
2.0000
  1
55
 72
1
 73
2
 11
75.000000
 21
116.000000
100
AcDbText
  0
LWPOLYLINE
100
AcDbEntity
  8
LOTES
100
AcDbPolyline
 90
4
 70
1
 10
80.000000
 20
106.000000
 10
90.000000
 20
106.000000
 10
90.000000
 20
126.000000
 10
80.000000
 20
126.000000
  0
TEXT
100
AcDbEntity
  8
TEXTOS
100
AcDbText
 10
82.000000
 20
115.000000
 40
2.0000
  1
56
 72
1
 73
2
 11
85.000000
 21
116.000000
100
AcDbText
  0
LWPOLYLINE
100
AcDbEntity
  8
LOTES
100
AcDbPolyline
 90
4
 70
1
 10
90.000000
 20
106.000000
 10
100.000000
 20
106.000000
 10
100.000000
 20
126.000000
 10
90.000000
 20
126.000000
  0
TEXT
100
AcDbEntity
  8
TEXTOS
100
AcDbText
 10
92.000000
 20
115.000000
 40
2.0000
  1
57
 72
1
 73
2
 11
95.000000
 21
116.000000
100
AcDbText
  0
LWPOLYLINE
100
AcDbEntity
  8
LOTES
100
AcDbPolyline
 90
4
 70
1
 10
100.000000
 20
106.000000
 10
110.000000
 20
106.000000
 10
110.000000
 20
126.000000
 10
100.000000
 20
126.000000
  0
TEXT
100
AcDbEntity
  8
TEXTOS
100
AcDbText
 10
102.000000
 20
115.000000
 40
2.0000
  1
58
 72
1
 73
2
 11
105.000000
 21
116.000000
100
AcDbText
  0
LWPOLYLINE
100
AcDbEntity
  8
LOTES
100
AcDbPolyline
 90
4
 70
1
 10
110.000000
 20
106.000000
 10
120.000000
 20
106.000000
 10
120.000000
 20
126.000000
 10
110.000000
 20
126.000000
  0
TEXT
100
AcDbEntity
  8
TEXTOS
100
AcDbText
 10
112.000000
 20
115.000000
 40
2.0000
  1
59
 72
1
 73
2
 11
115.000000
 21
116.000000
100
AcDbText
  0
LWPOLYLINE
100
AcDbEntity
  8
LOTES
100
AcDbPolyline
 90
4
 70
1
 10
120.000000
 20
106.000000
 10
130.000000
 20
106.000000
 10
125.000000
 20
126.000000
 10
120.000000
 20
126.000000
  0
TEXT
100
AcDbEntity
  8
TEXTOS
100
AcDbText
 10
120.750000
 20
115.000000
 40
2.0000
  1
60
 72
1
 73
2
 11
123.750000
 21
116.000000
100
AcDbText
  0
LWPOLYLINE
100
AcDbEntity
  8
LOTES
100
AcDbPolyline
 90
4
 70
1
 10
10.000000
 20
126.000000
 10
20.000000
 20
126.000000
 10
20.000000
 20
146.000000
 10
10.000000
 20
146.000000
  0
TEXT
100
AcDbEntity
  8
TEXTOS
100
AcDbText
 10
12.000000
 20
135.000000
 40
2.0000
  1
61
 72
1
 73
2
 11
15.000000
 21
136.000000
100
AcDbText
  0
LWPOLYLINE
100
AcDbEntity
  8
LOTES
100
AcDbPolyline
 90
4
 70
1
 10
20.000000
 20
126.000000
 10
30.000000
 20
126.000000
 10
30.000000
 20
146.000000
 10
20.000000
 20
146.000000
  0
TEXT
100
AcDbEntity
  8
TEXTOS
100
AcDbText
 10
22.000000
 20
135.000000
 40
2.0000
  1
62
 72
1
 73
2
 11
25.000000
 21
136.000000
100
AcDbText
  0
LWPOLYLINE
100
AcDbEntity
  8
LOTES
100
AcDbPolyline
 90
4
 70
1
 10
30.000000
 20
126.000000
 10
40.000000
 20
126.000000
 10
40.000000
 20
146.000000
 10
30.000000
 20
146.000000
  0
TEXT
100
AcDbEntity
  8
TEXTOS
100
AcDbText
 10
32.000000
 20
135.000000
 40
2.0000
  1
63
 72
1
 73
2
 11
35.000000
 21
136.000000
100
AcDbText
  0
LWPOLYLINE
100
AcDbEntity
  8
LOTES
100
AcDbPolyline
 90
4
 70
1
 10
40.000000
 20
126.000000
 10
50.000000
 20
126.000000
 10
50.000000
 20
146.000000
 10
40.000000
 20
146.000000
  0
TEXT
100
AcDbEntity
  8
TEXTOS
100
AcDbText
 10
42.000000
 20
135.000000
 40
2.0000
  1
64
 72
1
 73
2
 11
45.000000
 21
136.000000
100
AcDbText
  0
LWPOLYLINE
100
AcDbEntity
  8
LOTES
100
AcDbPolyline
 90
4
 70
1
 10
50.000000
 20
126.000000
 10
60.000000
 20
126.000000
 10
60.000000
 20
146.000000
 10
50.000000
 20
146.000000
  0
TEXT
100
AcDbEntity
  8
TEXTOS
100
AcDbText
 10
52.000000
 20
135.000000
 40
2.0000
  1
65
 72
1
 73
2
 11
55.000000
 21
136.000000
100
AcDbText
  0
LWPOLYLINE
100
AcDbEntity
  8
LOTES
100
AcDbPolyline
 90
4
 70
1
 10
60.000000
 20
126.000000
 10
70.000000
 20
126.000000
 10
70.000000
 20
146.000000
 10
60.000000
 20
146.000000
  0
TEXT
100
AcDbEntity
  8
TEXTOS
100
AcDbText
 10
62.000000
 20
135.000000
 40
2.0000
  1
66
 72
1
 73
2
 11
65.000000
 21
136.000000
100
AcDbText
  0
LWPOLYLINE
100
AcDbEntity
  8
LOTES
100
AcDbPolyline
 90
4
 70
1
 10
70.000000
 20
126.000000
 10
80.000000
 20
126.000000
 10
80.000000
 20
146.000000
 10
70.000000
 20
146.000000
  0
TEXT
100
AcDbEntity
  8
TEXTOS
100
AcDbText
 10
72.000000
 20
135.000000
 40
2.0000
  1
67
 72
1
 73
2
 11
75.000000
 21
136.000000
100
AcDbText
  0
LWPOLYLINE
100
AcDbEntity
  8
LOTES
100
AcDbPolyline
 90
4
 70
1
 10
80.000000
 20
126.000000
 10
90.000000
 20
126.000000
 10
90.000000
 20
146.000000
 10
80.000000
 20
146.000000
  0
TEXT
100
AcDbEntity
  8
TEXTOS
100
AcDbText
 10
82.000000
 20
135.000000
 40
2.0000
  1
68
 72
1
 73
2
 11
85.000000
 21
136.000000
100
AcDbText
  0
LWPOLYLINE
100
AcDbEntity
  8
LOTES
100
AcDbPolyline
 90
4
 70
1
 10
90.000000
 20
126.000000
 10
100.000000
 20
126.000000
 10
100.000000
 20
146.000000
 10
90.000000
 20
146.000000
  0
TEXT
100
AcDbEntity
  8
TEXTOS
100
AcDbText
 10
92.000000
 20
135.000000
 40
2.0000
  1
69
 72
1
 73
2
 11
95.000000
 21
136.000000
100
AcDbText
  0
LWPOLYLINE
100
AcDbEntity
  8
LOTES
100
AcDbPolyline
 90
4
 70
1
 10
100.000000
 20
126.000000
 10
110.000000
 20
126.000000
 10
110.000000
 20
146.000000
 10
100.000000
 20
146.000000
  0
TEXT
100
AcDbEntity
  8
TEXTOS
100
AcDbText
 10
102.000000
 20
135.000000
 40
2.0000
  1
70
 72
1
 73
2
 11
105.000000
 21
136.000000
100
AcDbText
  0
LWPOLYLINE
100
AcDbEntity
  8
LOTES
100
AcDbPolyline
 90
4
 70
1
 10
110.000000
 20
126.000000
 10
120.000000
 20
126.000000
 10
120.000000
 20
146.000000
 10
110.000000
 20
146.000000
  0
TEXT
100
AcDbEntity
  8
TEXTOS
100
AcDbText
 10
112.000000
 20
135.000000
 40
2.0000
  1
71
 72
1
 73
2
 11
115.000000
 21
136.000000
100
AcDbText
  0
LWPOLYLINE
100
AcDbEntity
  8
LOTES
100
AcDbPolyline
 90
4
 70
1
 10
120.000000
 20
126.000000
 10
125.000000
 20
126.000000
 10
120.000000
 20
146.000000
 10
120.000000
 20
146.000000
  0
TEXT
100
AcDbEntity
  8
TEXTOS
100
AcDbText
 10
118.250000
 20
135.000000
 40
2.0000
  1
72
 72
1
 73
2
 11
121.250000
 21
136.000000
100
AcDbText
  0
LWPOLYLINE
100
AcDbEntity
  8
CALLES
100
AcDbPolyline
 90
4
 70
1
 10
130.000000
 20
10.000000
 10
138.000000
 20
10.000000
 10
138.000000
 20
50.000000
 10
130.000000
 20
50.000000
  0
LWPOLYLINE
100
AcDbEntity
  8
CALLES
100
AcDbPolyline
 90
48
 70
1
 10
177.000000
 20
30.000000
 10
176.897338
 20
31.566314
 10
176.591110
 20
33.105829
 10
176.086554
 20
34.592201
 10
175.392305
 20
36.000000
 10
174.520240
 20
37.305137
 10
173.485281
 20
38.485281
 10
172.305137
 20
39.520240
 10
171.000000
 20
40.392305
 10
169.592201
 20
41.086554
 10
168.105829
 20
41.591110
 10
166.566314
 20
41.897338
 10
165.000000
 20
42.000000
 10
163.433686
 20
41.897338
 10
161.894171
 20
41.591110
 10
160.407799
 20
41.086554
 10
159.000000
 20
40.392305
 10
157.694863
 20
39.520240
 10
156.514719
 20
38.485281
 10
155.479760
 20
37.305137
 10
154.607695
 20
36.000000
 10
153.913446
 20
34.592201
 10
153.408890
 20
33.105829
 10
153.102662
 20
31.566314
 10
153.000000
 20
30.000000
 10
153.102662
 20
28.433686
 10
153.408890
 20
26.894171
 10
153.913446
 20
25.407799
 10
154.607695
 20
24.000000
 10
155.479760
 20
22.694863
 10
156.514719
 20
21.514719
 10
157.694863
 20
20.479760
 10
159.000000
 20
19.607695
 10
160.407799
 20
18.913446
 10
161.894171
 20
18.408890
 10
163.433686
 20
18.102662
 10
165.000000
 20
18.000000
 10
166.566314
 20
18.102662
 10
168.105829
 20
18.408890
 10
169.592201
 20
18.913446
 10
171.000000
 20
19.607695
 10
172.305137
 20
20.479760
 10
173.485281
 20
21.514719
 10
174.520240
 20
22.694863
 10
175.392305
 20
24.000000
 10
176.086554
 20
25.407799
 10
176.591110
 20
26.894171
 10
176.897338
 20
28.433686
  0
LWPOLYLINE
100
AcDbEntity
  8
LOTES
100
AcDbPolyline
 90
4
 70
1
 10
165.000000
 20
18.000000
 10
165.000000
 20
-2.000000
 42
0.1316524976
 10
181.000000
 20
2.287187
 10
171.000000
 20
19.607695
 42
-0.1316524976
  0
TEXT
100
AcDbEntity
  8
TEXTOS
100
AcDbText
 10
167.694019
 20
7.749632
 40
2.0000
  1
73
 72
1
 73
2
 11
170.694019
 21
8.749632
100
AcDbText
  0
LWPOLYLINE
100
AcDbEntity
  8
LOTES
100
AcDbPolyline
 90
4
 70
1
 10
171.000000
 20
19.607695
 10
181.000000
 20
2.287187
 42
0.1316524976
 10
192.712813
 20
14.000000
 10
175.392305
 20
24.000000
 42
-0.1316524976
  0
TEXT
100
AcDbEntity
  8
TEXTOS
100
AcDbText
 10
177.556349
 20
13.443651
 40
2.0000
  1
74
 72
1
 73
2
 11
180.556349
 21
14.443651
100
AcDbText
  0
LWPOLYLINE
100
AcDbEntity
  8
LOTES
100
AcDbPolyline
 90
4
 70
1
 10
175.392305
 20
24.000000
 10
192.712813
 20
14.000000
 42
0.1316524976
 10
197.000000
 20
30.000000
 10
177.000000
 20
30.000000
 42
-0.1316524976
  0
TEXT
100
AcDbEntity
  8
TEXTOS
100
AcDbText
 10
183.250368
 20
23.305981
 40
2.0000
  1
75
 72
1
 73
2
 11
186.250368
 21
24.305981
100
AcDbText
  0
LWPOLYLINE
100
AcDbEntity
  8
LOTES
100
AcDbPolyline
 90
4
 70
1
 10
177.000000
 20
30.000000
 10
197.000000
 20
30.000000
 42
0.1316524976
 10
192.712813
 20
46.000000
 10
175.392305
 20
36.000000
 42
-0.1316524976
  0
TEXT
100
AcDbEntity
  8
TEXTOS
100
AcDbText
 10
183.250368
 20
34.694019
 40
2.0000
  1
76
 72
1
 73
2
 11
186.250368
 21
35.694019
100
AcDbText
  0
LWPOLYLINE
100
AcDbEntity
  8
LOTES
100
AcDbPolyline
 90
4
 70
1
 10
175.392305
 20
36.000000
 10
192.712813
 20
46.000000
 42
0.1316524976
 10
181.000000
 20
57.712813
 10
171.000000
 20
40.392305
 42
-0.1316524976
  0
TEXT
100
AcDbEntity
  8
TEXTOS
100
AcDbText
 10
177.556349
 20
44.556349
 40
2.0000
  1
77
 72
1
 73
2
 11
180.556349
 21
45.556349
100
AcDbText
  0
LWPOLYLINE
100
AcDbEntity
  8
LOTES
100
AcDbPolyline
 90
4
 70
1
 10
171.000000
 20
40.392305
 10
181.000000
 20
57.712813
 42
0.1316524976
 10
165.000000
 20
62.000000
 10
165.000000
 20
42.000000
 42
-0.1316524976
  0
TEXT
100
AcDbEntity
  8
TEXTOS
100
AcDbText
 10
167.694019
 20
50.250368
 40
2.0000
  1
78
 72
1
 73
2
 11
170.694019
 21
51.250368
100
AcDbText
  0
LWPOLYLINE
100
AcDbEntity
  8
AREAS_VERDES
100
AcDbPolyline
 90
4
 70
1
 10
10.000000
 20
150.000000
 10
60.000000
 20
150.000000
 10
60.000000
 20
170.000000
 10
10.000000
 20
170.000000
  0
LWPOLYLINE
100
AcDbEntity
  8
PERIMETRO
100
AcDbPolyline
 90
5
 70
1
 10
5.000000
 20
5.000000
 10
205.000000
 20
5.000000
 10
205.000000
 20
145.000000
 10
140.000000
 20
175.000000
 10
5.000000
 20
175.000000
  0
ENDSEC
  0
EOF
